<?xml version="1.0" encoding="UTF-8"?>
<svg version="1.1" xmlns="http://www.w3.org/2000/svg" width="1024" height="1024">
<path d="M0 0 C337.92 0 675.84 0 1024 0 C1024 337.92 1024 675.84 1024 1024 C686.08 1024 348.16 1024 0 1024 C0 686.08 0 348.16 0 0 Z " fill="#F9FAFE" transform="translate(0,0)"/>
<path d="M0 0 C1.38481567 0.01027222 1.38481567 0.01027222 2.79760742 0.02075195 C13.28524451 0.26766132 21.08311229 3.4655212 29.625 9.4375 C29.563125 8.32375 29.50125 7.21 29.4375 6.0625 C29.5303125 4.268125 29.5303125 4.268125 29.625 2.4375 C33.24846069 0.02185954 35.94103982 0.13968331 40.125 0.1875 C40.80175781 0.17976563 41.47851562 0.17203125 42.17578125 0.1640625 C45.87419257 0.17865189 47.47103337 0.33485558 50.625 2.4375 C50.9164216 5.38724228 51.0134444 8.12665492 50.98144531 11.078125 C50.98348969 11.97253296 50.98553406 12.86694092 50.98764038 13.78845215 C50.99065685 16.75500709 50.97214532 19.72101081 50.953125 22.6875 C50.95006878 24.74251162 50.94819162 26.7975253 50.94744873 28.85253906 C50.94284021 33.16349184 50.92839332 37.47425839 50.90625 41.78515625 C50.87796722 47.32044139 50.86703912 52.85557965 50.8625679 58.39093018 C50.85841738 62.63559448 50.84860296 66.88022887 50.83669281 71.12487793 C50.83098185 73.16629801 50.82622589 75.20772098 50.82242584 77.24914551 C50.81557574 80.09844046 50.80194919 82.94761751 50.78613281 85.796875 C50.78501495 86.6468103 50.78389709 87.49674561 50.78274536 88.37243652 C50.73969077 94.20811847 50.73969077 94.20811847 49.625 96.4375 C43.355 96.4375 37.085 96.4375 30.625 96.4375 C30.295 94.4575 29.965 92.4775 29.625 90.4375 C28.65820312 90.91960937 27.69140625 91.40171875 26.6953125 91.8984375 C12.9183647 98.63876264 0.84304788 101.64043277 -14.3515625 97.48046875 C-28.99603354 92.42869386 -37.70129845 83.30812146 -44.76953125 69.765625 C-49.61428259 57.91909522 -49.53844094 40.8055597 -44.703125 28.97265625 C-37.65586158 15.52067402 -27.44208037 5.70527622 -12.84619141 1.03955078 C-8.57199768 -0.00176138 -4.38111021 -0.04998985 0 0 Z " fill="#3D2C54" transform="translate(653.375,485.5625)"/>
<path d="M0 0 C1.34756491 1.0019717 2.682616 2.02116534 4 3.0625 C5.03125 3.805 6.0625 4.5475 7.125 5.3125 C16.31240411 14.10045175 22.50221799 26.50045491 23.16796875 39.2890625 C23.17441406 40.41054688 23.18085937 41.53203125 23.1875 42.6875 C23.20167969 43.81414063 23.21585938 44.94078125 23.23046875 46.1015625 C23 49.0625 23 49.0625 21 52.0625 C17.95016479 52.42326355 17.95016479 52.42326355 13.97998047 52.40307617 C12.89689606 52.40373329 12.89689606 52.40373329 11.79193115 52.40440369 C9.40007692 52.40230999 7.0089196 52.37895257 4.6171875 52.35546875 C2.96095157 52.34987484 1.30471068 52.34560377 -0.35153198 52.34260559 C-4.7147996 52.33114063 -9.07776852 52.30165948 -13.44091797 52.26849365 C-17.89156045 52.23782818 -22.34225111 52.22410781 -26.79296875 52.20898438 C-35.52878304 52.17679116 -44.26435439 52.12557515 -53 52.0625 C-52.21068036 53.51625073 -51.417348 54.96782325 -50.62231445 56.41845703 C-49.96027763 57.63131882 -49.96027763 57.63131882 -49.28486633 58.86868286 C-46.04707751 64.39697512 -40.50657985 68.70127156 -34.38671875 70.625 C-24.87611803 72.3683507 -15.57562163 71.65375589 -7 67.0625 C-4.5394889 65.2606488 -2.23181678 63.40349278 0.02734375 61.35546875 C2 60.0625 2 60.0625 3.95703125 60.015625 C7.02721223 61.58887261 8.63943206 63.92471454 10.75 66.625 C11.54921875 67.63691406 12.3484375 68.64882813 13.171875 69.69140625 C13.77515625 70.47386719 14.3784375 71.25632812 15 72.0625 C12.3401819 79.76543855 6.3008124 83.58231471 -0.6875 87.3125 C-14.9574166 94.04257416 -29.00758917 94.73933612 -44 90.0625 C-57.96202202 83.77959009 -66.42292409 73.78622053 -72.3125 59.875 C-76.91810725 47.58701052 -75.7923473 34.15440956 -70.78125 22.140625 C-64.81411232 10.40525423 -55.68519894 0.79605464 -43.25390625 -3.99609375 C-40.84405723 -4.74447183 -38.46281048 -5.39114273 -36 -5.9375 C-34.78763672 -6.21013672 -34.78763672 -6.21013672 -33.55078125 -6.48828125 C-22.02750052 -8.51764922 -9.85467463 -6.40967913 0 0 Z " fill="#3E2D55" transform="translate(846,491.9375)"/>
<path d="M0 0 C5.17427041 4.94134505 8.56618267 10.47629947 11.6875 16.875 C12.0484375 17.57882812 12.409375 18.28265625 12.78125 19.0078125 C15.9842179 26.57037559 15.30534997 35.8349263 14.6875 43.875 C14.0275 44.865 13.3675 45.855 12.6875 46.875 C9.71359253 47.23576355 9.71359253 47.23576355 5.85107422 47.21557617 C4.79725052 47.21623329 4.79725052 47.21623329 3.72213745 47.21690369 C1.39520674 47.21481021 -0.93100736 47.19145395 -3.2578125 47.16796875 C-4.86920783 47.16237476 -6.48060825 47.15810373 -8.0920105 47.15510559 C-12.3369145 47.14364126 -16.58151142 47.11416068 -20.82629395 47.08099365 C-25.15628912 47.05032682 -29.48633382 47.03660752 -33.81640625 47.02148438 C-42.31524521 46.98929227 -50.81383443 46.93807704 -59.3125 46.875 C-58.524083 48.32884142 -57.73144218 49.78039283 -56.93701172 51.23095703 C-56.2755867 52.44381882 -56.2755867 52.44381882 -55.60079956 53.68118286 C-54.15420807 56.14455187 -52.63051777 57.92096858 -50.4375 59.75 C-49.82132812 60.28367187 -49.20515625 60.81734375 -48.5703125 61.3671875 C-40.82648358 66.53867187 -32.3330999 67.27292922 -23.3125 65.875 C-17.58709393 63.97497586 -12.45467366 61.39252666 -8.3125 56.9375 C-7.6525 56.256875 -6.9925 55.57625 -6.3125 54.875 C-2.37073278 55.10192477 -0.31564751 57.43879985 2.375 60.125 C3.16261719 60.89328125 3.95023437 61.6615625 4.76171875 62.453125 C6.85029419 65.07973103 7.60089509 66.52988523 7.6875 69.875 C2.96064994 78.16067539 -8.48721099 83.27651578 -17.25488281 85.78442383 C-31.74028297 89.50202237 -44.41057895 88.53155146 -57.625 81.125 C-70.72018814 72.63541287 -77.51017771 60.27202839 -80.90234375 45.265625 C-83.22932679 31.70263817 -78.89940258 18.054186 -71.3125 6.875 C-63.21172065 -3.45349367 -51.90802645 -10.17780642 -38.828125 -11.91796875 C-24.07598796 -13.13204214 -11.53640819 -9.6457677 0 0 Z " fill="#3C2C53" transform="translate(335.3125,497.125)"/>
<path d="M0 0 C0.99 0.721875 1.98 1.44375 3 2.1875 C2.938125 1.07375 2.87625 -0.04 2.8125 -1.1875 C2.9053125 -2.981875 2.9053125 -2.981875 3 -4.8125 C6.75013415 -7.31258943 9.72511906 -7.10851996 14.0625 -7.0625 C14.79533203 -7.07023437 15.52816406 -7.07796875 16.28320312 -7.0859375 C21.74663018 -7.06586982 21.74663018 -7.06586982 24 -4.8125 C24.1935698 -1.86522865 24.26216415 0.98775104 24.24291992 3.93579102 C24.24481827 4.84155884 24.24671661 5.74732666 24.24867249 6.68054199 C24.2523871 9.68425054 24.24166708 12.68771907 24.23046875 15.69140625 C24.22927732 17.77123486 24.22882371 19.85106401 24.2290802 21.93089294 C24.2275142 26.29307414 24.21921501 30.6551734 24.20581055 35.01733398 C24.18881002 40.62221513 24.18499643 46.22700622 24.18575573 51.83191013 C24.18548444 56.12713997 24.18001009 60.42234992 24.17275429 64.71757317 C24.16956165 66.78494046 24.16759883 68.85231001 24.16686058 70.91967964 C24.1647039 73.8026937 24.15597461 76.68561024 24.14526367 79.56860352 C24.14571686 80.43148483 24.14617004 81.29436615 24.14663696 82.18339539 C24.11447415 88.07302585 24.11447415 88.07302585 23 89.1875 C20.00981839 89.31417764 17.05305892 89.37270838 14.0625 89.375 C13.22525391 89.38724609 12.38800781 89.39949219 11.52539062 89.41210938 C10.72423828 89.41404297 9.92308594 89.41597656 9.09765625 89.41796875 C8.36039307 89.42207764 7.62312988 89.42618652 6.86352539 89.43041992 C5 89.1875 5 89.1875 3 87.1875 C2.7484436 84.95077515 2.7484436 84.95077515 2.74462891 82.13037109 C2.73766998 81.07522308 2.73071106 80.02007507 2.72354126 78.93295288 C2.72453827 77.78718781 2.72553528 76.64142273 2.7265625 75.4609375 C2.70626287 73.04296421 2.6854119 70.6249955 2.6640625 68.20703125 C2.64150711 64.38879551 2.62501267 60.57074058 2.61914062 56.75244141 C2.60959117 53.07160556 2.57576839 49.39158899 2.5390625 45.7109375 C2.54663071 44.01050797 2.54663071 44.01050797 2.55435181 42.27572632 C2.44512862 33.4308044 0.44409798 26.63159798 -6 20.1875 C-13.45116601 15.11185424 -21.84863232 11.90338269 -31 13.1875 C-40.5743003 15.52850754 -47.73925905 20.00268072 -53 28.4375 C-57.72194647 38.92182182 -56.01099168 52.8503033 -52.19140625 63.32421875 C-51.79824219 64.26910156 -51.40507812 65.21398437 -51 66.1875 C-50.63777344 67.10144531 -50.27554687 68.01539063 -49.90234375 68.95703125 C-47.21885267 75.02445007 -43.7853563 79.77029673 -38 83.1875 C-33.47465406 84.69075605 -29.56703669 84.67690805 -25.125 82.9375 C-22.44608547 81.43730786 -20.85839357 80.54182852 -19 78.1875 C-17.85979705 72.31185959 -18.79103408 67.92253078 -22.03125 63.0390625 C-23.960705 59.35131384 -24.18120283 55.29244099 -24 51.1875 C-22.69206038 47.95207041 -21.70903049 46.65343432 -18.8125 44.75 C-16.690776 43.25641617 -16.690776 43.25641617 -16.5 40.25 C-17.10097602 36.56902188 -18.12177293 35.47315091 -21 33.1875 C-24.21694364 31.57902818 -27.52137222 31.57440851 -31 32.1875 C-33.69105198 34.36324416 -35.45532928 36.09815856 -37 39.1875 C-37.74802764 48.46304276 -35.08953558 56.49580537 -30.6875 64.625 C-29 68.1875 -29 68.1875 -29.25 71.1875 C-30 73.1875 -30 73.1875 -31.6875 74 C-34 74.1875 -34 74.1875 -36.4375 72.375 C-43.85309096 64.09235532 -47.76216232 51.5359136 -47.34375 40.53515625 C-46.36399576 33.84388012 -42.91129742 29.58805563 -37.78125 25.4140625 C-32.59263422 21.84119988 -28.20738177 21.44074731 -22 22.1875 C-15.12896507 24.28334428 -11.70462503 28.32374995 -7.6875 34.0625 C-6.14331033 38.83544987 -6.52201897 42.92085027 -8.25 47.5 C-9.95355506 50.11617384 -11.36833584 51.55405328 -14 53.1875 C-13.58403722 57.1391464 -12.55552443 60.29018969 -10.9375 63.875 C-8.45964419 69.90172621 -7.68738335 75.90508818 -9.625 82.2265625 C-12.5419583 88.13861192 -18.07117348 91.78675688 -23.875 94.5625 C-33.81125321 96.54975064 -42.4116609 94.89043455 -50.89453125 89.26953125 C-64.15607704 79.01949928 -71.70484103 64.67091445 -74 48.1875 C-74.82969861 32.98279065 -71.78959026 19.39623383 -62.1875 7.25 C-45.57124794 -9.97363464 -20.21217461 -12.54301616 0 0 Z " fill="#3C2C53" transform="translate(433,492.8125)"/>
<path d="M0 0 C1.09924805 0.00483398 1.09924805 0.00483398 2.22070312 0.00976562 C2.94966797 -0.00634766 3.67863281 -0.02246094 4.4296875 -0.0390625 C9.77131901 -0.04395859 9.77131901 -0.04395859 11.98884583 1.54255676 C13.67734151 3.86419603 13.67883748 5.3026182 13.71557617 8.16088867 C13.74526741 9.63207405 13.74526741 9.63207405 13.77555847 11.13298035 C13.78194839 12.18931168 13.78833832 13.24564301 13.79492188 14.33398438 C13.82184868 15.95902641 13.82184868 15.95902641 13.84931946 17.61689758 C13.90355297 21.08114719 13.93736057 24.545258 13.97070312 28.00976562 C14.00386461 30.3567902 14.03835317 32.70379644 14.07421875 35.05078125 C14.15928686 40.80781825 14.22758145 46.56487293 14.28320312 52.32226562 C14.8148407 51.97628326 15.34647827 51.6303009 15.89422607 51.27383423 C16.95446991 50.59518814 16.95446991 50.59518814 18.03613281 49.90283203 C18.73277039 49.45372467 19.42940796 49.00461731 20.14715576 48.54190063 C29.13426894 43.41046111 41.91363165 44.19402314 51.76757812 45.93945312 C61.78664129 48.87249493 69.60833292 55.0660334 75.03710938 63.95507812 C79.01137275 71.50493269 81.38643929 78.60061789 81.44433594 87.16650391 C81.45394348 88.31764679 81.46355103 89.46878967 81.47344971 90.65481567 C81.47769958 91.88827728 81.48194946 93.12173889 81.48632812 94.39257812 C81.4920282 95.66575897 81.49772827 96.93893982 81.50360107 98.2507019 C81.51303718 100.9388181 81.51994216 103.62682299 81.5234375 106.31494141 C81.52894229 109.7595156 81.55302732 113.20369851 81.58140945 116.64814949 C81.60448941 119.93792944 81.60648064 123.22772852 81.61132812 126.51757812 C81.62367493 127.7550882 81.63602173 128.99259827 81.64874268 130.26760864 C81.64574158 131.4124472 81.64274048 132.55728577 81.63964844 133.73681641 C81.64511688 135.24974777 81.64511688 135.24974777 81.6506958 136.79324341 C81.28320312 139.32226562 81.28320312 139.32226562 79.99359131 141.14865112 C77.05135555 143.16752063 73.65760327 142.71073601 70.22070312 142.63476562 C69.48787109 142.63798828 68.75503906 142.64121094 68 142.64453125 C62.55042251 142.58948501 62.55042251 142.58948501 60.28320312 140.32226562 C60.03164673 137.9336853 60.03164673 137.9336853 60.02783203 134.89794922 C60.02087311 133.7627182 60.01391418 132.62748718 60.00674438 131.45785522 C60.00774139 130.22459503 60.0087384 128.99133484 60.00976562 127.72070312 C59.98946706 125.12043848 59.9686161 122.5201781 59.94726562 119.91992188 C59.92257217 115.81201429 59.90736962 111.70416889 59.90234375 107.59619141 C59.89633282 103.63746561 59.85898604 99.67926438 59.82226562 95.72070312 C59.82983383 93.88903091 59.82983383 93.88903091 59.83755493 92.02035522 C59.75607985 84.930538 58.96397232 80.4001856 55.28320312 74.32226562 C54.95320313 73.33226562 54.62320313 72.34226562 54.28320312 71.32226562 C52.53452829 70.23795469 52.53452829 70.23795469 50.28320312 69.32226562 C49.47882813 68.78601563 48.67445313 68.24976563 47.84570312 67.69726562 C41.53658626 65.26216789 34.80691823 65.17905765 28.35742188 67.27148438 C21.67924851 70.40775246 17.80760599 74.18354831 14.92285156 81.06433105 C13.53646438 85.95822488 13.86402312 91.10294812 13.87695312 96.15039062 C13.86611694 97.37634949 13.85528076 98.60230835 13.84411621 99.86541748 C13.79830067 105.09513609 13.78672098 110.3248039 13.77197266 115.5546875 C13.75633263 119.37843745 13.72335576 123.20176622 13.68945312 127.02539062 C13.69247437 128.21287903 13.69549561 129.40036743 13.6986084 130.62384033 C13.68849731 131.72218201 13.67838623 132.82052368 13.66796875 133.95214844 C13.66591431 134.91920715 13.66385986 135.88626587 13.66174316 136.88262939 C13.28320312 139.32226562 13.28320312 139.32226562 11.99182129 141.13519287 C9.05679075 143.174323 5.66084249 142.71080761 2.22070312 142.63476562 C1.48787109 142.63798828 0.75503906 142.64121094 0 142.64453125 C-5.44957749 142.58948501 -5.44957749 142.58948501 -7.71679688 140.32226562 C-7.96847916 137.92655945 -7.96847916 137.92655945 -7.97076416 134.85620117 C-7.97640381 133.6951889 -7.98204346 132.53417664 -7.987854 131.33798218 C-7.98380554 130.0579129 -7.97975708 128.77784363 -7.97558594 127.45898438 C-7.97829488 126.10234387 -7.98185526 124.74570484 -7.98620605 123.3890686 C-7.99534394 119.69905128 -7.99178009 116.00914547 -7.98544788 112.31912613 C-7.9803951 108.46299177 -7.98507732 104.60686715 -7.98822021 100.75073242 C-7.99186197 94.27423381 -7.98705528 87.79778076 -7.97753906 81.32128906 C-7.96665409 73.82656674 -7.97017952 66.33195323 -7.98119187 58.83723354 C-7.99025879 52.41002945 -7.99155295 45.98285817 -7.98631454 39.55564976 C-7.98319155 35.71362588 -7.98279447 31.87165319 -7.98938751 28.02963257 C-7.99515173 24.41813421 -7.99118119 20.80677654 -7.979599 17.19529343 C-7.97567946 15.23238063 -7.98164594 13.26945597 -7.987854 11.30654907 C-7.98221436 10.1455368 -7.97657471 8.98452454 -7.97076416 7.78833008 C-7.96963308 6.26850273 -7.96963308 6.26850273 -7.96847916 4.7179718 C-7.44221789 -0.29138901 -4.33645524 0.04380258 0 0 Z " fill="#3D2D54" transform="translate(163.716796875,440.677734375)"/>
<path d="M0 0 C1.72265625 1.26953125 1.72265625 1.26953125 2.72265625 2.26953125 C2.59461518 9.4398313 -0.00737017 13.62846524 -4.27734375 19.26953125 C-9.17581139 18.78928932 -12.12780137 17.79974002 -16.27734375 15.26953125 C-23.32244993 12.87922737 -32.50510996 11.44391161 -39.60546875 14.16015625 C-41.43832371 15.1764803 -41.43832371 15.1764803 -42.27734375 17.26953125 C-42.72820002 21.30002128 -42.72820002 21.30002128 -41.125 24.83984375 C-38.69343098 26.72135382 -36.41881436 27.35835659 -33.46484375 28.20703125 C-32.31242188 28.54476562 -31.16 28.8825 -29.97265625 29.23046875 C-27.4898018 29.92860753 -25.00539172 30.62123524 -22.51953125 31.30859375 C-21.30523438 31.64632812 -20.0909375 31.9840625 -18.83984375 32.33203125 C-17.72738281 32.63238281 -16.61492188 32.93273437 -15.46875 33.2421875 C-7.20496362 35.90237822 -0.77215187 40.16960331 3.66015625 47.70703125 C6.98874158 55.00346663 7.01771132 63.35796599 4.98828125 71.0546875 C3.09051872 75.71353895 0.57434981 78.98150016 -3.27734375 82.26953125 C-3.95796875 82.95015625 -4.63859375 83.63078125 -5.33984375 84.33203125 C-16.62953271 91.77842184 -31.54961449 92.17582884 -44.59375 89.85791016 C-52.11342864 88.06281192 -60.86201394 84.98723988 -66.27734375 79.26953125 C-67.65873155 75.86014858 -67.34563966 74.45369019 -66.0546875 70.97265625 C-65.44753906 69.833125 -64.84039063 68.69359375 -64.21484375 67.51953125 C-63.62574219 66.3696875 -63.03664063 65.21984375 -62.4296875 64.03515625 C-60.27734375 61.26953125 -60.27734375 61.26953125 -57.29296875 60.2109375 C-53.83456438 60.27813448 -52.75302674 60.82957559 -50.08984375 62.95703125 C-42.34941962 68.52857815 -33.87799634 71.64105305 -24.27734375 70.26953125 C-20.14391372 69.13666524 -17.72446171 67.94020819 -15.27734375 64.26953125 C-15.03981067 60.76164872 -15.03981067 60.76164872 -16.27734375 57.26953125 C-21.67888667 53.50000531 -27.26908339 51.96606903 -33.58984375 50.33203125 C-45.78818802 46.97995907 -55.66653731 43.86801798 -62.37109375 32.3984375 C-65.44476185 25.553834 -65.46331381 17.04125496 -63.15234375 9.95703125 C-59.94750203 2.7722233 -54.3831731 -2.47014705 -47.27734375 -5.73046875 C-31.30567643 -11.29262982 -14.14620314 -9.32846451 0 0 Z " fill="#3B2B52" transform="translate(592.27734375,493.73046875)"/>
<path d="M0 0 C1.05380859 -0.0309375 1.05380859 -0.0309375 2.12890625 -0.0625 C5.10820916 -0.08502781 7.56722397 0.12844548 10.34765625 1.2265625 C12.79949974 4.47478482 12.33194175 7.98470216 12.1875 11.875 C12.17783203 12.66390625 12.16816406 13.4528125 12.15820312 14.265625 C12.04328029 20.08171971 12.04328029 20.08171971 10.875 21.25 C7.41074168 21.45467172 3.95342341 21.59595185 0.484375 21.6796875 C-4.62259781 21.89321946 -8.60029751 22.65023207 -13.125 25.25 C-16.97673374 29.59264098 -17.75466708 33.48029212 -17.875 39.125 C-17.90464844 39.81335938 -17.93429687 40.50171875 -17.96484375 41.2109375 C-18.03480536 42.89001626 -18.08225211 44.57000812 -18.125 46.25 C-17.52437744 46.24476318 -16.92375488 46.23952637 -16.30493164 46.23413086 C-13.59913162 46.21341986 -10.89334823 46.20035875 -8.1875 46.1875 C-7.24197266 46.17912109 -6.29644531 46.17074219 -5.32226562 46.16210938 C-3.97358398 46.15727539 -3.97358398 46.15727539 -2.59765625 46.15234375 C-1.34867554 46.14448853 -1.34867554 46.14448853 -0.07446289 46.13647461 C1.875 46.25 1.875 46.25 2.875 47.25 C3.00163091 50.07416382 3.06020548 52.86294793 3.0625 55.6875 C3.07474609 56.47705078 3.08699219 57.26660156 3.09960938 58.08007812 C3.10487279 60.13807435 2.99706285 62.19562009 2.875 64.25 C0.875 66.25 0.875 66.25 -1.09619141 66.47705078 C-2.2744751 66.46134033 -2.2744751 66.46134033 -3.4765625 66.4453125 C-4.75273438 66.43564453 -4.75273438 66.43564453 -6.0546875 66.42578125 C-7.38886719 66.40064453 -7.38886719 66.40064453 -8.75 66.375 C-9.6471875 66.36597656 -10.544375 66.35695313 -11.46875 66.34765625 C-13.68776586 66.3240497 -15.90625077 66.2911231 -18.125 66.25 C-18.11833817 67.15788773 -18.11167633 68.06577545 -18.10481262 69.00117493 C-18.04474246 77.55029197 -17.99904645 86.09933831 -17.96956348 94.64861774 C-17.9538965 99.04407555 -17.93263956 103.43935922 -17.89868164 107.8347168 C-17.86612476 112.07518924 -17.84815477 116.31549401 -17.84036827 120.55608177 C-17.83481813 122.17525053 -17.82398021 123.79440994 -17.80780983 125.41350746 C-17.78608383 127.67862523 -17.78303097 129.94304703 -17.78442383 132.20825195 C-17.77776199 133.49842728 -17.77110016 134.7886026 -17.76423645 136.11787415 C-18.125 139.25 -18.125 139.25 -19.41362 141.16740417 C-22.3951553 143.05348305 -25.77621627 142.63790415 -29.1875 142.5625 C-29.92033203 142.56572266 -30.65316406 142.56894531 -31.40820312 142.57226562 C-36.85778061 142.51721939 -36.85778061 142.51721939 -39.125 140.25 C-39.36550903 137.20016479 -39.36550903 137.20016479 -39.35205078 133.22998047 C-39.35234283 132.50792419 -39.35263489 131.78586792 -39.35293579 131.04193115 C-39.35154008 128.65022858 -39.33596783 126.25883579 -39.3203125 123.8671875 C-39.31658322 122.2109494 -39.31373585 120.55470911 -39.31173706 118.89846802 C-39.30409389 114.5352776 -39.2844396 110.17221993 -39.2623291 105.80908203 C-39.24188535 101.35841671 -39.2327385 96.90772997 -39.22265625 92.45703125 C-39.20119429 83.72129319 -39.16705018 74.9856631 -39.125 66.25 C-39.97964844 66.26160156 -40.83429687 66.27320313 -41.71484375 66.28515625 C-42.81957031 66.29417969 -43.92429687 66.30320312 -45.0625 66.3125 C-46.16464844 66.32410156 -47.26679687 66.33570313 -48.40234375 66.34765625 C-51.125 66.25 -51.125 66.25 -52.125 65.25 C-52.2233721 63.91956375 -52.25578592 62.58406656 -52.2578125 61.25 C-52.25910156 60.445625 -52.26039063 59.64125 -52.26171875 58.8125 C-52.25785156 57.966875 -52.25398437 57.12125 -52.25 56.25 C-52.25386719 55.404375 -52.25773438 54.55875 -52.26171875 53.6875 C-52.26042969 52.883125 -52.25914062 52.07875 -52.2578125 51.25 C-52.25668457 50.5075 -52.25555664 49.765 -52.25439453 49 C-52.125 47.25 -52.125 47.25 -51.125 46.25 C-49.10535801 46.17755947 -47.08332876 46.16622812 -45.0625 46.1875 C-43.40541016 46.20103516 -43.40541016 46.20103516 -41.71484375 46.21484375 C-40.86019531 46.22644531 -40.00554688 46.23804688 -39.125 46.25 C-39.14594727 45.69127197 -39.16689453 45.13254395 -39.18847656 44.55688477 C-39.27266294 41.97561327 -39.32397693 39.39463176 -39.375 36.8125 C-39.40851562 35.93400391 -39.44203125 35.05550781 -39.4765625 34.15039062 C-39.60954919 25.1405426 -36.37918819 16.85252272 -30.125 10.25 C-20.84709255 2.82417953 -11.83689126 0.08784335 0 0 Z " fill="#3D2D55" transform="translate(766.125,440.75)"/>
<path d="M0 0 C1.09924805 0.00483398 1.09924805 0.00483398 2.22070312 0.00976562 C2.94966797 -0.00634766 3.67863281 -0.02246094 4.4296875 -0.0390625 C7.3488612 -0.04173819 9.67098744 -0.03865831 12.22460938 1.46679688 C13.67699448 4.01249032 13.96222345 6.43344857 14.28320312 9.32226562 C15.00765625 8.84015625 15.73210937 8.35804688 16.47851562 7.86132812 C17.4453125 7.2296875 18.41210938 6.59804688 19.40820312 5.94726562 C20.35953125 5.32078125 21.31085938 4.69429688 22.29101562 4.04882812 C27.01644511 1.32214427 31.14097656 0.04371556 36.59570312 0.13476562 C37.88927734 0.14443359 37.88927734 0.14443359 39.20898438 0.15429688 C41.28320312 0.32226562 41.28320312 0.32226562 42.28320312 1.32226562 C42.49018353 4.29686966 42.6077339 7.21958146 42.65820312 10.19726562 C42.71427734 11.44056641 42.71427734 11.44056641 42.77148438 12.70898438 C42.80501389 15.01506981 42.77060644 17.06716313 42.28320312 19.32226562 C39.36516652 21.89671089 37.3543333 22.30685409 33.53320312 23.13476562 C27.38669845 24.60760731 22.64806049 27.50249839 18.56982422 32.36523438 C11.92152128 43.43501275 13.46408518 56.47400487 13.53320312 68.94726562 C13.53176163 72.55532104 13.52195685 76.16308797 13.50189209 79.77108765 C13.49167069 82.00578618 13.49344761 84.24057811 13.50836182 86.47525024 C13.50785828 87.47744598 13.50735474 88.47964172 13.50683594 89.51220703 C13.5116095 90.39534576 13.51638306 91.2784845 13.52130127 92.18838501 C13.28320312 94.32226562 13.28320312 94.32226562 11.28320312 96.32226562 C9.40380859 96.54931641 9.40380859 96.54931641 7.15039062 96.51757812 C6.34472656 96.51113281 5.5390625 96.5046875 4.70898438 96.49804688 C3.86722656 96.48128906 3.02546875 96.46453125 2.15820312 96.44726562 C1.30871094 96.43824219 0.45921875 96.42921875 -0.41601562 96.41992188 C-2.51639571 96.3963221 -4.61663132 96.36045045 -6.71679688 96.32226562 C-8.37141603 93.01302731 -7.86400035 89.31967297 -7.86206055 85.68164062 C-7.86541916 84.78723267 -7.86877777 83.89282471 -7.87223816 82.97131348 C-7.88176324 80.0049502 -7.88369194 77.03864326 -7.88476562 74.07226562 C-7.88797671 72.01725236 -7.89134067 69.96223933 -7.89485168 67.90722656 C-7.90084657 63.59634877 -7.90269117 59.28549104 -7.90209961 54.97460938 C-7.90199787 49.43929863 -7.91566042 43.90411583 -7.93287182 38.36883545 C-7.9439659 34.12418013 -7.94601963 29.87955603 -7.94548988 25.6348877 C-7.94667353 23.59346068 -7.95111664 21.55203294 -7.95882225 19.51062012 C-7.9685716 16.66128452 -7.96576441 13.81223033 -7.9597168 10.96289062 C-7.9653363 10.11295532 -7.97095581 9.26302002 -7.97674561 8.3873291 C-7.93945528 1.50657049 -7.00371023 0.07074455 0 0 Z " fill="#3C2C53" transform="translate(478.716796875,485.677734375)"/>
<path d="M0 0 C7.41379222 3.85717568 13.21592081 9.77856515 16.26171875 17.73046875 C17.94304627 25.45623819 17.79800945 33.81173036 14.0625 40.875 C9.66877764 47.58188796 4.74528752 52.97626641 -3.08203125 55.484375 C-12.01347856 57.19397225 -20.77465133 56.60412375 -28.3515625 51.49609375 C-34.63253683 46.5460322 -37.76914384 40.39178724 -40.265625 32.90234375 C-41.06561802 23.51781021 -39.67488852 15.12312652 -33.8515625 7.53515625 C-24.88002306 -1.70155184 -12.04410183 -5.39993822 0 0 Z " fill="#F6F9FC" transform="translate(666.265625,508.09765625)"/>
<path d="M0 0 C5.6264563 3.29536209 9.92731748 7.88284678 12.4375 13.9375 C12.4375 15.2575 12.4375 16.5775 12.4375 17.9375 C-4.7225 17.9375 -21.8825 17.9375 -39.5625 17.9375 C-38.23277848 9.9591709 -34.70236571 6.07508243 -28.3359375 1.25 C-19.82232647 -3.76135632 -8.97420166 -4.07426048 0 0 Z " fill="#F1F3F7" transform="translate(833.5625,508.0625)"/>
<path d="M0 0 C5.43733011 3.75329872 9.52157512 8.09926981 11.9296875 14.33203125 C11.9296875 15.32203125 11.9296875 16.31203125 11.9296875 17.33203125 C-5.2303125 17.33203125 -22.3903125 17.33203125 -40.0703125 17.33203125 C-38.70627875 9.14782873 -34.50545921 5.00767081 -28.22265625 -0.19921875 C-20.32109111 -5.06172038 -7.98945373 -4.26606681 0 0 Z " fill="#F2F3F7" transform="translate(317.0703125,508.66796875)"/>
<path d="M0 0 C1.875 1.125 1.875 1.125 3 3 C3.5 6.4375 3.5 6.4375 3 10 C0.875 12.5 0.875 12.5 -2 14 C-5.50732933 14 -7.2434698 13.6345092 -9.9375 11.375 C-11.49800943 7.88680246 -10.99154664 5.63567102 -10 2 C-6.93558602 -1.63189805 -4.37003477 -1.30171248 0 0 Z " fill="#BCBCC2" transform="translate(867,471)"/>
<path d="M0 0 C0.33 0 0.66 0 1 0 C1.01030746 0.84730179 1.02061493 1.69460358 1.03123474 2.56758118 C1.13013059 10.64087914 1.23275598 18.71411987 1.33933926 26.78732014 C1.39397975 30.93558409 1.44728984 35.08385535 1.49731445 39.23217773 C1.80169105 64.63067374 1.80169105 64.63067374 3 90 C3 90.66 3 91.32 3 92 C5.45873768 91.85941524 7.91685175 91.71277001 10.375 91.5625 C11.07367188 91.52318359 11.77234375 91.48386719 12.4921875 91.44335938 C16.37360492 91.25719866 16.37360492 91.25719866 20 90 C19.67 90.99 19.34 91.98 19 93 C13.06 93 7.12 93 1 93 C-0.64773901 89.70452197 -0.12895725 86.04092836 -0.11352539 82.41943359 C-0.11374443 81.08763313 -0.11374443 81.08763313 -0.1139679 79.72892761 C-0.11326955 76.78540631 -0.10548081 73.84194779 -0.09765625 70.8984375 C-0.09579179 68.86105382 -0.09436802 66.82366969 -0.09336853 64.7862854 C-0.08954555 59.41702034 -0.07971711 54.04778223 -0.06866455 48.67852783 C-0.05844574 43.2023556 -0.0538699 37.72617902 -0.04882812 32.25 C-0.03809467 21.49998815 -0.02102085 10.74999631 0 0 Z " fill="#2A263D" transform="translate(471,489)"/>
<path d="M0 0 C0.99 0.495 0.99 0.495 2 1 C2.01030746 1.61974197 2.02061493 2.23948395 2.03123474 2.87800598 C2.13926606 9.31794864 2.25386691 15.75775043 2.37231445 22.19750977 C2.41567409 24.60210223 2.4573484 27.00672569 2.49731445 29.41137695 C2.55499189 32.86419016 2.61869385 36.31684719 2.68359375 39.76953125 C2.70866249 41.38683891 2.70866249 41.38683891 2.73423767 43.03681946 C2.75418289 44.03763046 2.77412811 45.03844147 2.79467773 46.06958008 C2.81022202 46.95116287 2.8257663 47.83274567 2.84178162 48.74104309 C2.9174752 51.1677108 2.9174752 51.1677108 4 54 C8.95 54 13.9 54 19 54 C19 54.66 19 55.32 19 56 C16.20807795 56.05380578 13.4171859 56.09357669 10.625 56.125 C9.8309375 56.14175781 9.036875 56.15851562 8.21875 56.17578125 C6.14507985 56.19335473 4.07116759 56.10335168 2 56 C0 54 0 54 -0.24050903 51.70944214 C-0.23606781 50.75457916 -0.23162659 49.79971619 -0.22705078 48.81591797 C-0.22689972 47.73494843 -0.22674866 46.65397888 -0.22659302 45.54025269 C-0.21627045 44.36939117 -0.20594788 43.19852966 -0.1953125 41.9921875 C-0.1924826 40.79643097 -0.18965271 39.60067444 -0.18673706 38.36868286 C-0.17551305 34.53735481 -0.15040431 30.70625778 -0.125 26.875 C-0.11497308 24.28255545 -0.10584673 21.69010725 -0.09765625 19.09765625 C-0.07556646 12.73169158 -0.04206706 6.36586229 0 0 Z " fill="#463D5C" transform="translate(436,526)"/>
<path d="M0 0 C0.99 0.33 1.98 0.66 3 1 C1.55477293 4.3721965 -0.33145418 6.50361843 -3 9 C-3.33 9.33 -3.66 9.66 -4 10 C-3.34 11.32 -2.68 12.64 -2 14 C-2.66 14 -3.32 14 -4 14 C-4.33 15.98 -4.66 17.96 -5 20 C-6.32 19.67 -7.64 19.34 -9 19 C-9.33 21.31 -9.66 23.62 -10 26 C-12.8453918 21.7319123 -12.63487857 18.0125878 -12 13 C-10.92002977 10.07468934 -9.60013509 7.70022796 -8 5 C-7.01 5.33 -6.02 5.66 -5 6 C-3.35 4.02 -1.7 2.04 0 0 Z " fill="#41365C" transform="translate(398,518)"/>
<path d="M0 0 C0.33 0 0.66 0 1 0 C1 3.3 1 6.6 1 10 C0.01 10.495 0.01 10.495 -1 11 C-1 11.66 -1 12.32 -1 13 C-1.99 13 -2.98 13 -4 13 C-3.34 13.33 -2.68 13.66 -2 14 C-1.375 16.5625 -1.375 16.5625 -1 19 C-0.67 19 -0.34 19 0 19 C0.12375 19.804375 0.2475 20.60875 0.375 21.4375 C0.58125 22.283125 0.7875 23.12875 1 24 C1.66 24.33 2.32 24.66 3 25 C3.625 27.0625 3.625 27.0625 4 29 C3.34 29 2.68 29 2 29 C1.67 29.66 1.34 30.32 1 31 C-4.06190557 24.01737136 -7.76308557 16.11983113 -6.6875 7.3125 C-6.460625 6.219375 -6.23375 5.12625 -6 4 C-5.01 4 -4.02 4 -3 4 C-3 4.66 -3 5.32 -3 6 C-2.34 6 -1.68 6 -1 6 C-0.67 4.02 -0.34 2.04 0 0 Z " fill="#392D4F" transform="translate(394,532)"/>
<path d="M0 0 C0.66 0 1.32 0 2 0 C2 16.5 2 33 2 50 C2.66 50.33 3.32 50.66 4 51 C2.02 51.495 2.02 51.495 0 52 C-0.16815987 45.07673941 -0.32806257 38.15332371 -0.48217773 31.22973633 C-0.53560512 28.87357242 -0.59093504 26.51745087 -0.64819336 24.16137695 C-0.73008339 20.77825046 -0.80516966 17.39503154 -0.87890625 14.01171875 C-0.90594131 12.95538742 -0.93297638 11.89905609 -0.96083069 10.81071472 C-0.98092697 9.82992447 -1.00102325 8.84913422 -1.02172852 7.83862305 C-1.04171402 6.97480515 -1.06169952 6.11098724 -1.08229065 5.22099304 C-1 3 -1 3 0 0 Z " fill="#423C56" transform="translate(175,444)"/>
<path d="M0 0 C0.66 0.66 1.32 1.32 2 2 C2.99 2 3.98 2 5 2 C5 5.63 5 9.26 5 13 C3.35 13.33 1.7 13.66 0 14 C-0.33 14.99 -0.66 15.98 -1 17 C-2.58631421 12.83592521 -3.47448657 9.46017376 -3 5 C-1.5 2.125 -1.5 2.125 0 0 Z " fill="#3D2F53" transform="translate(412,539)"/>
<path d="M0 0 C1.65322266 0.01740234 1.65322266 0.01740234 3.33984375 0.03515625 C4.99693359 0.04869141 4.99693359 0.04869141 6.6875 0.0625 C7.54214844 0.07410156 8.39679687 0.08570313 9.27734375 0.09765625 C9.27734375 0.42765625 9.27734375 0.75765625 9.27734375 1.09765625 C6.63734375 1.09765625 3.99734375 1.09765625 1.27734375 1.09765625 C1.27734375 2.08765625 1.27734375 3.07765625 1.27734375 4.09765625 C0.61734375 4.09765625 -0.04265625 4.09765625 -0.72265625 4.09765625 C-1.05265625 3.10765625 -1.38265625 2.11765625 -1.72265625 1.09765625 C-1.97296602 3.51385448 -1.97296602 3.51385448 -1.72265625 6.09765625 C-0.73265625 6.75765625 0.25734375 7.41765625 1.27734375 8.09765625 C1.5703125 10.26171875 1.5703125 10.26171875 1.46484375 12.72265625 C1.43777344 13.53992188 1.41070313 14.3571875 1.3828125 15.19921875 C1.34800781 15.82570313 1.31320312 16.4521875 1.27734375 17.09765625 C-0.37265625 17.75765625 -2.02265625 18.41765625 -3.72265625 19.09765625 C-3.74949612 16.11843032 -3.76941662 13.1394433 -3.78515625 10.16015625 C-3.79353516 9.31001953 -3.80191406 8.45988281 -3.81054688 7.58398438 C-3.81376953 6.77509766 -3.81699219 5.96621094 -3.8203125 5.1328125 C-3.82554932 4.38394775 -3.83078613 3.63508301 -3.83618164 2.86352539 C-3.64543995 -0.10343085 -2.98420031 0.10703731 0 0 Z " fill="#342748" transform="translate(717.72265625,486.90234375)"/>
<path d="M0 0 C1.9375 0.1875 1.9375 0.1875 4 1 C5.25 3.0625 5.25 3.0625 6 5 C6.66 5 7.32 5 8 5 C8.33 4.34 8.66 3.68 9 3 C9.33 3.99 9.66 4.98 10 6 C4.375 8 4.375 8 1 8 C0.67 8.33 0.34 8.66 0 9 C0.40929986 11.05396726 0.40929986 11.05396726 1 13 C-1.86319855 11.95016053 -2.8499428 11.26601048 -4.375 8.5625 C-4.58125 7.716875 -4.7875 6.87125 -5 6 C-4.34 5.01 -3.68 4.02 -3 3 C-2.67 3 -2.34 3 -2 3 C-1.67 2.34 -1.34 1.68 -1 1 C-0.67 0.67 -0.34 0.34 0 0 Z " fill="#37294D" transform="translate(374,560)"/>
<path d="M0 0 C0.66 0.33 1.32 0.66 2 1 C2.3125 4.25 2.3125 4.25 2 8 C-0.125 10.5 -0.125 10.5 -3 12 C-6.1875 12 -6.1875 12 -9 11 C-10.375 8.9375 -10.375 8.9375 -11 7 C-8.525 7.99 -8.525 7.99 -6 9 C-6.66 8.01 -7.32 7.02 -8 6 C-7.625 3.8125 -7.625 3.8125 -7 2 C-5.35 2.33 -3.7 2.66 -2 3 C-2 3.66 -2 4.32 -2 5 C-1.34 5 -0.68 5 0 5 C0 3.35 0 1.7 0 0 Z " fill="#9C9BA4" transform="translate(868,473)"/>
<path d="M0 0 C23.43 0 46.86 0 71 0 C71 0.33 71 0.66 71 1 C69.72879807 1.01213028 69.72879807 1.01213028 68.43191528 1.02450562 C60.45625559 1.10235572 52.4807669 1.18961699 44.50532722 1.28752708 C40.40479051 1.33753305 36.3042801 1.38386246 32.20361328 1.421875 C28.24831801 1.45867383 24.29324055 1.50501856 20.33813095 1.55806351 C18.82705368 1.57663632 17.31592967 1.59173356 15.80478287 1.60334396 C13.69270638 1.62015753 11.58113192 1.64917921 9.46923828 1.68115234 C7.66388107 1.70113785 7.66388107 1.70113785 5.822052 1.7215271 C2.86507125 1.71209485 2.86507125 1.71209485 1 4 C0.67 2.68 0.34 1.36 0 0 Z " fill="#C4C8DB" transform="translate(276,544)"/>
<path d="M0 0 C1.175625 0.4640625 1.175625 0.4640625 2.375 0.9375 C6.89851578 2.26335807 11.31431814 2.64811085 16 3 C15.67 3.66 15.34 4.32 15 5 C15.33 5.66 15.66 6.32 16 7 C13.37438891 7.08074203 10.75124324 7.1403623 8.125 7.1875 C7.00544922 7.22520508 7.00544922 7.22520508 5.86328125 7.26367188 C3.6953125 7.29296875 3.6953125 7.29296875 0 7 C-0.66 6.01 -1.32 5.02 -2 4 C-1.34 2.68 -0.68 1.36 0 0 Z " fill="#514068" transform="translate(226,576)"/>
<path d="M0 0 C1.4606285 2.64738916 2 3.89448334 2 7 C-0.0023036 9.21531462 -2.29937993 10.7435339 -5 12 C-8.9375 11.8125 -8.9375 11.8125 -12 11 C-10.75 9.5 -10.75 9.5 -9 8 C-7.68 8 -6.36 8 -5 8 C-4.34 6.35 -3.68 4.7 -3 3 C-2.34 3 -1.68 3 -1 3 C-0.67 2.01 -0.34 1.02 0 0 Z " fill="#3A2F55" transform="translate(589,568)"/>
<path d="M0 0 C0 0.66 0 1.32 0 2 C-2.41626418 2.19534474 -4.83265229 2.38153404 -7.25 2.5625 C-7.93191406 2.61857422 -8.61382813 2.67464844 -9.31640625 2.73242188 C-12.7420581 2.98186254 -15.72701177 3.13879745 -19 2 C-18.01 3.32 -17.02 4.64 -16 6 C-19.82097239 5.46930939 -22.06171403 4.50298434 -25 2 C-16.63994116 -0.38858824 -8.61264844 -0.190218 0 0 Z " fill="#4E4860" transform="translate(774,441)"/>
<path d="M0 0 C0.99 0.33 1.98 0.66 3 1 C3 1.99 3 2.98 3 4 C3.66 4 4.32 4 5 4 C4.67 5.32 4.34 6.64 4 8 C3.01 8 2.02 8 1 8 C0.67 12.62 0.34 17.24 0 22 C-2 20 -2 20 -2.25 16.0625 C-2.14318949 10.59736229 -1.11725411 5.33688347 0 0 Z " fill="#493C5E" transform="translate(256,520)"/>
<path d="M0 0 C0.74958984 0.00902344 1.49917969 0.01804687 2.27148438 0.02734375 C4.11862654 0.05087422 5.96560412 0.08674439 7.8125 0.125 C7.8125 0.785 7.8125 1.445 7.8125 2.125 C6.83667969 2.17398437 5.86085938 2.22296875 4.85546875 2.2734375 C3.58316406 2.34820312 2.31085938 2.42296875 1 2.5 C-0.89685547 2.60441406 -0.89685547 2.60441406 -2.83203125 2.7109375 C-6.31505234 2.88602939 -6.31505234 2.88602939 -9.1875 5.125 C-9.1875 6.115 -9.1875 7.105 -9.1875 8.125 C-9.5175 8.785 -9.8475 9.445 -10.1875 10.125 C-10.8475 9.795 -11.5075 9.465 -12.1875 9.125 C-11.875 5.75 -11.875 5.75 -11.1875 2.125 C-7.39586973 -0.40275351 -4.37875969 -0.09943035 0 0 Z " fill="#4B4260" transform="translate(447.1875,485.875)"/>
<path d="M0 0 C0.33 1.32 0.66 2.64 1 4 C-0.27875 4.2475 -1.5575 4.495 -2.875 4.75 C-6.26747318 5.51990586 -6.26747318 5.51990586 -8.5 8.125 C-8.665 8.74375 -8.83 9.3625 -9 10 C-8.34 10.33 -7.68 10.66 -7 11 C-7.99 11 -8.98 11 -10 11 C-10.2253459 7.69492676 -10.34500438 5.60786486 -8.6875 2.6875 C-5.91458717 -0.08541283 -3.88588943 0 0 0 Z " fill="#F0F2F5" transform="translate(559,506)"/>
<path d="M0 0 C0.99 0.33 1.98 0.66 3 1 C3.6875 3.0625 3.6875 3.0625 4 5 C-0.2837641 7.57025846 -4.1725201 9.58707905 -9 11 C-6.57068581 6.32132083 -4.61734333 2.84144205 0 0 Z M0 2 C-0.33 2.66 -0.66 3.32 -1 4 C-0.01 3.67 0.98 3.34 2 3 C1.34 2.67 0.68 2.34 0 2 Z " fill="#362B4A" transform="translate(740,448)"/>
<path d="M0 0 C0.33 0.66 0.66 1.32 1 2 C0.0625 4.625 0.0625 4.625 -1 7 C-1.66 7 -2.32 7 -3 7 C-3 7.66 -3 8.32 -3 9 C-3.66 9 -4.32 9 -5 9 C-4.67 10.98 -4.34 12.96 -4 15 C-4.99 15 -5.98 15 -7 15 C-7.66 16.32 -8.32 17.64 -9 19 C-8.68021782 11.6450099 -5.19766723 5.19766723 0 0 Z " fill="#392F4C" transform="translate(783,503)"/>
<path d="M0 0 C0.33 1.32 0.66 2.64 1 4 C2.65 4.33 4.3 4.66 6 5 C6.125 8.375 6.125 8.375 6 12 C5.34 12.66 4.68 13.32 4 14 C3.34 12.68 2.68 11.36 2 10 C1.34 10.66 0.68 11.32 0 12 C0 8.04 0 4.08 0 0 Z " fill="#403259" transform="translate(528,508)"/>
<path d="M0 0 C0.66 1.32 1.32 2.64 2 4 C2.66 3.67 3.32 3.34 4 3 C5.26779516 7.31050353 4.74873745 9.890467 3 14 C2.01 15.32 1.02 16.64 0 18 C0 12.06 0 6.12 0 0 Z " fill="#42325A" transform="translate(683,533)"/>
<path d="M0 0 C0.99 0 1.98 0 3 0 C3.96070434 2.88211302 4.10581883 4.69850044 4.0625 7.6875 C4.05347656 8.49574219 4.04445313 9.30398438 4.03515625 10.13671875 C4.02355469 10.75160156 4.01195312 11.36648438 4 12 C3.54625 11.525625 3.0925 11.05125 2.625 10.5625 C1.06741796 8.90972192 1.06741796 8.90972192 -1 8 C-1 7.34 -1 6.68 -1 6 C-1.20625 5.34 -1.4125 4.68 -1.625 4 C-1.74875 3.34 -1.8725 2.68 -2 2 C-1.34 1.34 -0.68 0.68 0 0 Z " fill="#382A4D" transform="translate(420,559)"/>
<path d="M0 0 C4.77576339 0.4682121 8.04476345 1.24331998 12 4 C11.67 4.66 11.34 5.32 11 6 C9.824375 5.690625 9.824375 5.690625 8.625 5.375 C7.325625 5.189375 7.325625 5.189375 6 5 C5.34 5.66 4.68 6.32 4 7 C3.01 6.67 2.02 6.34 1 6 C1 5.34 1 4.68 1 4 C0.68521554 2.66216607 0.35412344 1.32796291 0 0 Z " fill="#342B4A" transform="translate(664,487)"/>
<path d="M0 0 C1.32 0.33 2.64 0.66 4 1 C3.01 2.485 3.01 2.485 2 4 C6.95 4 11.9 4 17 4 C11.98545615 7.34302923 6.18390818 6.30122871 0.375 5.5 C-0.40875 5.335 -1.1925 5.17 -2 5 C-1.34 3.35 -0.68 1.7 0 0 Z " fill="#4E4261" transform="translate(644,579)"/>
<path d="M0 0 C0.66 0.66 1.32 1.32 2 2 C5.29057851 2.20567359 5.29057851 2.20567359 9 2.0625 C15.80430528 1.90215264 15.80430528 1.90215264 18 3 C18 3.66 18 4.32 18 5 C15.37472811 5.05382106 12.75055287 5.09358313 10.125 5.125 C9.37863281 5.14175781 8.63226563 5.15851562 7.86328125 5.17578125 C5.90805539 5.1933959 3.95257979 5.10320189 2 5 C1.34 4.34 0.68 3.68 0 3 C0 2.01 0 1.02 0 0 Z " fill="#4E4661" transform="translate(156,578)"/>
<path d="M0 0 C1.65 0.99 3.3 1.98 5 3 C5 2.34 5 1.68 5 1 C9.76307437 0.04738513 14.1666528 -0.08333357 19 0 C19 0.33 19 0.66 19 1 C5.3667426 4.25968109 5.3667426 4.25968109 -1 5 C-0.67 3.35 -0.34 1.7 0 0 Z " fill="#322A48" transform="translate(186,504)"/>
<path d="M0 0 C0.33 0 0.66 0 1 0 C1.05380578 2.79192205 1.09357669 5.5828141 1.125 8.375 C1.15013672 9.56609375 1.15013672 9.56609375 1.17578125 10.78125 C1.19335473 12.85492015 1.10335168 14.92883241 1 17 C-1 19 -1 19 -4.125 19.125 C-5.548125 19.063125 -5.548125 19.063125 -7 19 C-6.67 18.34 -6.34 17.68 -6 17 C-4.68 17.33 -3.36 17.66 -2 18 C-1.34 12.06 -0.68 6.12 0 0 Z " fill="#2E2340" transform="translate(520,488)"/>
<path d="M0 0 C2.16100182 1.07799395 4.31880719 2.16167 6.47265625 3.25390625 C7.32730469 3.68574219 8.18195313 4.11757813 9.0625 4.5625 C9.91972656 4.99691406 10.77695312 5.43132813 11.66015625 5.87890625 C14.06506992 7.09098879 14.06506992 7.09098879 17 8 C17 8.66 17 9.32 17 10 C13.15199499 9.36100647 9.82316582 8.24713859 6.25 6.6875 C5.28578125 6.27886719 4.3215625 5.87023437 3.328125 5.44921875 C1 4 1 4 0.171875 1.83203125 C0.11515625 1.22746094 0.0584375 0.62289062 0 0 Z " fill="#322945" transform="translate(282,556)"/>
<path d="M0 0 C0.33 0.66 0.66 1.32 1 2 C1.66 2 2.32 2 3 2 C3.96891192 7.37305699 3.96891192 7.37305699 4 10 C2.5625 12 2.5625 12 1 13 C1 11.68 1 10.36 1 9 C0.34 9 -0.32 9 -1 9 C-1.33 7.35 -1.66 5.7 -2 4 C-1.34 4 -0.68 4 0 4 C0 2.68 0 1.36 0 0 Z " fill="#452F5D" transform="translate(421,530)"/>
<path d="M0 0 C0.33 0 0.66 0 1 0 C1.0810206 2.10353495 1.13919907 4.20795952 1.1875 6.3125 C1.22230469 7.48425781 1.25710938 8.65601563 1.29296875 9.86328125 C1 13 1 13 -0.51171875 14.91796875 C-1.00285156 15.27503906 -1.49398437 15.63210938 -2 16 C-2 15.34 -2 14.68 -2 14 C-2.99 13.67 -3.98 13.34 -5 13 C-4.67 11.35 -4.34 9.7 -4 8 C-3.01 8.33 -2.02 8.66 -1 9 C-0.67 6.03 -0.34 3.06 0 0 Z " fill="#5F5375" transform="translate(868,528)"/>
<path d="M0 0 C2 3 2 3 2 6 C3.43750191 7.68798827 3.43750191 7.68798827 5 9 C3.02 9.99 3.02 9.99 1 11 C-1.01544839 8.73262056 -1.94914998 7.42714016 -2.3125 4.375 C-2 2 -2 2 0 0 Z " fill="#44355A" transform="translate(794,548)"/>
<path d="M0 0 C0.99 0.33 1.98 0.66 3 1 C1.55746343 4.36591866 -0.33264727 6.51047079 -3 9 C-4.98 8.34 -6.96 7.68 -9 7 C-8.34 6.34 -7.68 5.68 -7 5 C-6.01 5 -5.02 5 -4 5 C-1.79857668 2.5609294 -1.79857668 2.5609294 0 0 Z " fill="#443762" transform="translate(398,518)"/>
<path d="M0 0 C2.33936818 2.12669835 3.80653848 4.06224856 5 7 C5 7.99 5 8.98 5 10 C3.35 10 1.7 10 0 10 C-1.125 3.375 -1.125 3.375 0 0 Z " fill="#EEEFF3" transform="translate(841,515)"/>
<path d="M0 0 C-0.53625 0.391875 -1.0725 0.78375 -1.625 1.1875 C-3.52387626 2.63664241 -5.31859491 4.12903286 -7.125 5.6875 C-10 8 -10 8 -12 8 C-9.49922557 0.88241125 -7.68009555 -0.43472239 0 0 Z " fill="#ECEBF2" transform="translate(401,515)"/>
<path d="M0 0 C1.39456452 0.00667256 2.78911118 0.01863093 4.18359375 0.03515625 C4.89451172 0.03966797 5.60542969 0.04417969 6.33789062 0.04882812 C8.09899388 0.06064761 9.86005411 0.07858362 11.62109375 0.09765625 C11.95109375 0.75765625 12.28109375 1.41765625 12.62109375 2.09765625 C10.16329399 2.31891803 7.70581727 2.5251602 5.24609375 2.72265625 C4.19808594 2.81933594 4.19808594 2.81933594 3.12890625 2.91796875 C1.29740264 3.05885364 -0.54203373 3.08527284 -2.37890625 3.09765625 C-3.03890625 2.43765625 -3.69890625 1.77765625 -4.37890625 1.09765625 C-3.37890625 0.09765625 -3.37890625 0.09765625 0 0 Z " fill="#4D4762" transform="translate(689.37890625,485.90234375)"/>
<path d="M0 0 C5.28 0 10.56 0 16 0 C16 0.66 16 1.32 16 2 C10.94997778 3.03590199 6.12583611 3.10251672 1 3 C0.67 2.01 0.34 1.02 0 0 Z " fill="#403650" transform="translate(158,441)"/>
<path d="M0 0 C1.9375 0.3125 1.9375 0.3125 4 1 C4.33 1.99 4.66 2.98 5 4 C5.99 4 6.98 4 8 4 C8.33 6.31 8.66 8.62 9 11 C1.33257403 5.03416856 1.33257403 5.03416856 0 0 Z " fill="#362B4B" transform="translate(264,563)"/>
<path d="M0 0 C0.33 0 0.66 0 1 0 C1 1.65 1 3.3 1 5 C4.63 5 8.26 5 12 5 C12 4.34 12 3.68 12 3 C12.99 3.33 13.98 3.66 15 4 C14.34 4 13.68 4 13 4 C13 4.66 13 5.32 13 6 C8.05 6.33 3.1 6.66 -2 7 C-2.33 6.01 -2.66 5.02 -3 4 C-1.625 1.8125 -1.625 1.8125 0 0 Z " fill="#433459" transform="translate(686,575)"/>
<path d="M0 0 C0.33 0 0.66 0 1 0 C1 1.65 1 3.3 1 5 C1.66 5 2.32 5 3 5 C3.33 4.01 3.66 3.02 4 2 C3.67 6.29 3.34 10.58 3 15 C0.50497077 12.50497077 0.41462527 10.94071581 -0.1875 7.5 C-0.36667969 6.5203125 -0.54585938 5.540625 -0.73046875 4.53125 C-1 2 -1 2 0 0 Z " fill="#44385A" transform="translate(346,521)"/>
<path d="M0 0 C0.66 0.66 1.32 1.32 2 2 C1.74739753 5.78903708 -0.27849443 7.54186593 -3 10 C-3 9.01 -3 8.02 -3 7 C-3.66 6.67 -4.32 6.34 -5 6 C-3.35 4.02 -1.7 2.04 0 0 Z " fill="#F0EEF4" transform="translate(781,499)"/>
<path d="M0 0 C2 3 2 3 3 6 C1.75 7.5 1.75 7.5 0 9 C-1.32 9 -2.64 9 -4 9 C-2.94124926 5.59687262 -1.99097846 2.98646769 0 0 Z " fill="#362648" transform="translate(531,558)"/>
<path d="M0 0 C1.65 0.33 3.3 0.66 5 1 C5.33 2.32 5.66 3.64 6 5 C4.02 5.66 2.04 6.32 0 7 C-1.125 2.25 -1.125 2.25 0 0 Z " fill="#413356" transform="translate(526,566)"/>
<path d="M0 0 C0.928125 0.5259375 0.928125 0.5259375 1.875 1.0625 C2.57625 1.371875 3.2775 1.68125 4 2 C4.66 1.67 5.32 1.34 6 1 C6 2.65 6 4.3 6 6 C5.34 6 4.68 6 4 6 C3.67 6.66 3.34 7.32 3 8 C2.34 8 1.68 8 1 8 C0.34 6.35 -0.32 4.7 -1 3 C-0.34 2.67 0.32 2.34 1 2 C0.67 1.34 0.34 0.68 0 0 Z " fill="#44315A" transform="translate(433,516)"/>
<path d="M0 0 C2.31 0 4.62 0 7 0 C7 1.66666667 7 3.33333333 7 5 C7.66 5.66 8.32 6.32 9 7 C6.62051228 6.82374165 5.29774151 6.30280227 3.62109375 4.59765625 C2.37884514 3.09350908 1.18623944 1.54870149 0 0 Z " fill="#362B49" transform="translate(784,568)"/>
<path d="M0 0 C0.33 0 0.66 0 1 0 C1.28571429 8.57142857 1.28571429 8.57142857 -1 12 C-1.66 12 -2.32 12 -3 12 C-3.33 12.66 -3.66 13.32 -4 14 C-3.21824485 9.15311808 -1.60155722 4.6233633 0 0 Z " fill="#35324E" transform="translate(683,539)"/>
<path d="M0 0 C1.32 0.66 2.64 1.32 4 2 C3.01 4.64 2.02 7.28 1 10 C-1.17288535 7.82711465 -1.64827002 6.98970481 -2 4 C-1.0625 1.75 -1.0625 1.75 0 0 Z " fill="#3A2F52" transform="translate(389,525)"/>
<path d="M0 0 C1.32 0.99 2.64 1.98 4 3 C3.67 3.99 3.34 4.98 3 6 C2.34 6 1.68 6 1 6 C0.67 7.65 0.34 9.3 0 11 C-0.99 10.67 -1.98 10.34 -3 10 C-2.690625 9.278125 -2.38125 8.55625 -2.0625 7.8125 C-1.07439461 5.19692691 -0.4712246 2.74881018 0 0 Z " fill="#352C4B" transform="translate(419,520)"/>
<path d="M0 0 C1.67542976 0.28604898 3.34385343 0.61781233 5 1 C4.67 2.32 4.34 3.64 4 5 C2.68 5 1.36 5 0 5 C-0.5625 3.0625 -0.5625 3.0625 -1 1 C-0.67 0.67 -0.34 0.34 0 0 Z " fill="#898493" transform="translate(861,475)"/>
<path d="M0 0 C-5.32006564 3.41029848 -9.05542387 3.09644404 -15 2 C-15 1.67 -15 1.34 -15 1 C-13.25215171 0.63536268 -11.50159498 0.2836922 -9.75 -0.0625 C-8.28820312 -0.35833984 -8.28820312 -0.35833984 -6.796875 -0.66015625 C-4.131881 -0.98397535 -2.51128277 -0.85503199 0 0 Z " fill="#352748" transform="translate(316,564)"/>
<path d="M0 0 C1.4606285 2.64738916 2 3.89448334 2 7 C0.33333333 7 -1.33333333 7 -3 7 C-3 7.66 -3 8.32 -3 9 C-3.66 8.67 -4.32 8.34 -5 8 C-4.34 6.35 -3.68 4.7 -3 3 C-2.34 3 -1.68 3 -1 3 C-0.67 2.01 -0.34 1.02 0 0 Z " fill="#45365D" transform="translate(589,568)"/>
<path d="M0 0 C0 0.99 0 1.98 0 3 C-2.63904371 4.41377341 -5.07120629 5.37240135 -8 6 C-7.625 3.5625 -7.625 3.5625 -7 1 C-4.53721199 -0.231394 -2.7204945 -0.07159196 0 0 Z " fill="#403859" transform="translate(808,506)"/>
<path d="M0 0 C0 3.88182751 -0.99521992 5.91792914 -3.625 8.75 C-4.305625 9.36875 -4.305625 9.36875 -5 10 C-5.99 9.67 -6.98 9.34 -8 9 C-6.85459775 7.68712379 -5.70866567 6.37470979 -4.5625 5.0625 C-3.92441406 4.33160156 -3.28632813 3.60070312 -2.62890625 2.84765625 C-1.77458541 1.87860647 -0.91348825 0.91348825 0 0 Z " fill="#332A48" transform="translate(271,497)"/>
<path d="M0 0 C0 0.66 0 1.32 0 2 C-1.65365406 3.02137457 -3.32376502 4.01612294 -5 5 C-7.05629871 6.60843974 -9.02012519 8.29638679 -11 10 C-11.66 9.67 -12.32 9.34 -13 9 C-11.54405245 7.68485396 -10.08516421 6.37296283 -8.625 5.0625 C-7.81289063 4.33160156 -7.00078125 3.60070312 -6.1640625 2.84765625 C-2.82875264 0 -2.82875264 0 0 0 Z " fill="#322947" transform="translate(631,492)"/>
<path d="M0 0 C0.66 0 1.32 0 2 0 C1.34 2.97 0.68 5.94 0 9 C1.32 9.33 2.64 9.66 4 10 C2.02 10.33 0.04 10.66 -2 11 C-1.85892253 9.54119891 -1.71197585 8.08296449 -1.5625 6.625 C-1.48128906 5.81289063 -1.40007813 5.00078125 -1.31640625 4.1640625 C-1 2 -1 2 0 0 Z " fill="#322948" transform="translate(794,517)"/>
<path d="M0 0 C-0.33 3.63 -0.66 7.26 -1 11 C-1.33 11 -1.66 11 -2 11 C-2.144375 10.05125 -2.28875 9.1025 -2.4375 8.125 C-2.82935399 5.1065506 -2.82935399 5.1065506 -4 3 C-4.66 3 -5.32 3 -6 3 C-6 2.34 -6 1.68 -6 1 C-3 0 -3 0 0 0 Z " fill="#F0F2F7" transform="translate(529,506)"/>
<path d="M0 0 C-0.33 1.32 -0.66 2.64 -1 4 C-1.969375 4.12375 -2.93875 4.2475 -3.9375 4.375 C-5.4534375 4.684375 -5.4534375 4.684375 -7 5 C-7.33 5.66 -7.66 6.32 -8 7 C-7.62005832 4.24542282 -7.1926367 3.17979426 -5.125 1.25 C-3 0 -3 0 0 0 Z " fill="#322643" transform="translate(543,491)"/>
<path d="M0 0 C3.37462715 0.54723683 5.08235 1.0549 8 3 C8 3.66 8 4.32 8 5 C8.66 5.33 9.32 5.66 10 6 C5.16743695 5.58578031 3.17320782 3.53586014 0 0 Z " fill="#362D48" transform="translate(274,574)"/>
<path d="M0 0 C0.103125 0.639375 0.20625 1.27875 0.3125 1.9375 C0.539375 2.618125 0.76625 3.29875 1 4 C1.99 4.33 2.98 4.66 4 5 C4.66 5.33 5.32 5.66 6 6 C6 6.99 6 7.98 6 9 C6.99 9.33 7.98 9.66 9 10 C8.01 10.495 8.01 10.495 7 11 C0.13785558 5.9059081 0.13785558 5.9059081 -0.4375 2.125 C-0.2209375 1.073125 -0.2209375 1.073125 0 0 Z " fill="#362D48" transform="translate(533,526)"/>
<path d="M0 0 C1.98 0 3.96 0 6 0 C5.67 1.65 5.34 3.3 5 5 C3.35 5 1.7 5 0 5 C0 3.35 0 1.7 0 0 Z " fill="#F4F6F5" transform="translate(624,488)"/>
<path d="M0 0 C1.65 0.33 3.3 0.66 5 1 C5 1.66 5 2.32 5 3 C6.32 3.66 7.64 4.32 9 5 C6.03 4.67 3.06 4.34 0 4 C0 2.68 0 1.36 0 0 Z " fill="#312846" transform="translate(535,575)"/>
<path d="M0 0 C0.66 0 1.32 0 2 0 C1.67 0.99 1.34 1.98 1 3 C0.67 2.01 0.34 1.02 0 0 Z M-1 3 C-0.34 3 0.32 3 1 3 C2.625 5.5 2.625 5.5 4 8 C1 9 1 9 -3 9 C-2.67 8.01 -2.34 7.02 -2 6 C-1.34 6.33 -0.68 6.66 0 7 C-0.33 5.68 -0.66 4.36 -1 3 Z " fill="#44345F" transform="translate(621,561)"/>
<path d="M0 0 C-1.2065625 1.175625 -1.2065625 1.175625 -2.4375 2.375 C-4.98690417 4.71982856 -4.98690417 4.71982856 -6 7 C-6.66 7 -7.32 7 -8 7 C-7.625 4.0625 -7.625 4.0625 -7 1 C-4.53721199 -0.231394 -2.7204945 -0.07159196 0 0 Z " fill="#312947" transform="translate(397,487)"/>
<path d="M0 0 C-1.90598443 2.43542455 -3.00596275 3.00158196 -6.0625 3.8125 C-7.5165625 3.9053125 -7.5165625 3.9053125 -9 4 C-9.66 3.34 -10.32 2.68 -11 2 C-7.36576791 -0.32590854 -4.22911669 -0.16265833 0 0 Z " fill="#342946" transform="translate(647,487)"/>
<path d="M0 0 C0.66 0.33 1.32 0.66 2 1 C2 1.66 2 2.32 2 3 C1.34 3 0.68 3 0 3 C-0.33 3.99 -0.66 4.98 -1 6 C-2.65 6.33 -4.3 6.66 -6 7 C-4.60667426 3.63279613 -3.0210714 2.0140476 0 0 Z " fill="#EAEDF3" transform="translate(756,463)"/>
<path d="M0 0 C0.66 0 1.32 0 2 0 C5.11450382 4.15267176 5.11450382 4.15267176 4.6875 7.3125 C4.460625 7.869375 4.23375 8.42625 4 9 C1.47740939 7.02579865 1.0070192 6.03254358 0.3125 2.8125 C0.209375 1.884375 0.10625 0.95625 0 0 Z " fill="#342A47" transform="translate(774,549)"/>
<path d="M0 0 C0.12375 0.5775 0.2475 1.155 0.375 1.75 C1.00648824 4.02335767 1.88858191 5.9253529 3 8 C2.443125 7.525625 1.88625 7.05125 1.3125 6.5625 C-1.18346074 4.87604004 -3.0446237 4.41046893 -6 4 C-4.03617993 2.49440461 -2.21736634 1.10868317 0 0 Z " fill="#423559" transform="translate(577,544)"/>
<path d="M0 0 C0.66 0.33 1.32 0.66 2 1 C1.67 1.66 1.34 2.32 1 3 C1.66 3 2.32 3 3 3 C2.67 3.99 2.34 4.98 2 6 C-0.31 5.67 -2.62 5.34 -5 5 C-3.625 3.5 -3.625 3.5 -2 2 C-1.34 2 -0.68 2 0 2 C0 1.34 0 0.68 0 0 Z " fill="#EAE9EF" transform="translate(571,520)"/>
<path d="M0 0 C0 0.66 0 1.32 0 2 C-2.91482778 2.80967438 -4.46113217 3.21845993 -7.3125 2.0625 C-7.869375 1.711875 -8.42625 1.36125 -9 1 C-5.64919071 -1.10976881 -3.77897651 -1.0497157 0 0 Z " fill="#413B5E" transform="translate(191,489)"/>
<path d="M0 0 C1.32 0.33 2.64 0.66 4 1 C4 1.99 4 2.98 4 4 C-0.0527516 4.98248524 -3.83861737 5.08159574 -8 5 C-8 4.67 -8 4.34 -8 4 C-6.865625 3.71125 -5.73125 3.4225 -4.5625 3.125 C-3.386875 2.75375 -2.21125 2.3825 -1 2 C-0.67 1.34 -0.34 0.68 0 0 Z " fill="#46305D" transform="translate(171,576)"/>
<path d="M0 0 C1.65 1.65 3.3 3.3 5 5 C4.67 5.66 4.34 6.32 4 7 C1 6 1 6 0 5 C0 4.34 0 3.68 0 3 C-0.66 2.67 -1.32 2.34 -2 2 C-1.34 1.34 -0.68 0.68 0 0 Z " fill="#332949" transform="translate(331,552)"/>
<path d="M0 0 C2 0.25 2 0.25 4 1 C4.33 1.99 4.66 2.98 5 4 C3.35 4.66 1.7 5.32 0 6 C-0.38218767 4.34385343 -0.71395102 2.67542976 -1 1 C-0.67 0.67 -0.34 0.34 0 0 Z " fill="#37304A" transform="translate(848,552)"/>
<path d="M0 0 C0.66 0 1.32 0 2 0 C2 0.66 2 1.32 2 2 C2.66 2 3.32 2 4 2 C5 3 5 3 7 6 C3.25 7.125 3.25 7.125 1 6 C0.375 2.9375 0.375 2.9375 0 0 Z " fill="#433458" transform="translate(272,545)"/>
<path d="M0 0 C3 3 3 3 4 6 C3.67 6.99 3.34 7.98 3 9 C2.34 9 1.68 9 1 9 C0.67 6.03 0.34 3.06 0 0 Z " fill="#322946" transform="translate(529,517)"/>
<path d="M0 0 C3.73639216 1.24546405 4.18756513 2.63404953 6 6 C4.68 6 3.36 6 2 6 C1.34 5.34 0.68 4.68 0 4 C0 2.68 0 1.36 0 0 Z " fill="#ECEBF2" transform="translate(857,476)"/>
<path d="M0 0 C0.99 0.66 1.98 1.32 3 2 C2.01 2 1.02 2 0 2 C0 2.66 0 3.32 0 4 C0.66 4 1.32 4 2 4 C2 4.66 2 5.32 2 6 C-0.31 5.34 -2.62 4.68 -5 4 C-3.74458443 1.48916886 -2.49936512 1.12874554 0 0 Z " fill="#47395B" transform="translate(288,577)"/>
<path d="M0 0 C0.33 1.32 0.66 2.64 1 4 C-0.98 4.66 -2.96 5.32 -5 6 C-5 4 -5 4 -4 3 C-4.66 2.67 -5.32 2.34 -6 2 C-2.25 0 -2.25 0 0 0 Z " fill="#44395C" transform="translate(843,576)"/>
<path d="M0 0 C4.29 0.33 8.58 0.66 13 1 C13 1.33 13 1.66 13 2 C7.06 2.495 7.06 2.495 1 3 C0.67 2.01 0.34 1.02 0 0 Z " fill="#322345" transform="translate(647,564)"/>
<path d="M0 0 C2 2 2 2 2 6 C1.01 6.33 0.02 6.66 -1 7 C-1.66 5.35 -2.32 3.7 -3 2 C-2.01 1.34 -1.02 0.68 0 0 Z " fill="#43305B" transform="translate(269,561)"/>
<path d="M0 0 C0.26218749 3.14624993 0.24754367 4.61837017 -1.5 7.3125 C-2.2425 8.1478125 -2.2425 8.1478125 -3 9 C-3.6875 6.1875 -3.6875 6.1875 -4 3 C-1.8 0 -1.8 0 0 0 Z " fill="#DEDDE8" transform="translate(422,543)"/>
<path d="M0 0 C0.66 0.33 1.32 0.66 2 1 C2.4140625 3.06640625 2.4140625 3.06640625 2.625 5.5625 C2.69976562 6.38878906 2.77453125 7.21507812 2.8515625 8.06640625 C2.92503906 9.02353516 2.92503906 9.02353516 3 10 C2.34 10 1.68 10 1 10 C1 7.69 1 5.38 1 3 C0.34 3 -0.32 3 -1 3 C-0.67 2.01 -0.34 1.02 0 0 Z " fill="#342C48" transform="translate(346,516)"/>
<path d="M0 0 C1 2 1 2 0.3125 4.5625 C-1 7 -1 7 -3.125 7.8125 C-3.74375 7.874375 -4.3625 7.93625 -5 8 C-3.8141763 4.62496331 -2.72426311 2.35277269 0 0 Z " fill="#332844" transform="translate(783,503)"/>
<path d="M0 0 C2.125 0.9375 2.125 0.9375 4 2 C1.69 3.32 -0.62 4.64 -3 6 C-2.625 3.5625 -2.625 3.5625 -2 1 C-1.34 0.67 -0.68 0.34 0 0 Z " fill="#EAEDF3" transform="translate(495,490)"/>
<path d="M0 0 C0 0.66 0 1.32 0 2 C0.66 2.66 1.32 3.32 2 4 C-1.82097239 3.46930939 -4.06171403 2.50298434 -7 0 C-3.86650268 -1.04449911 -3.01031744 -0.93423645 0 0 Z " fill="#463C5B" transform="translate(756,443)"/>
<path d="M0 0 C1.98 0.66 3.96 1.32 6 2 C5.67 2.99 5.34 3.98 5 5 C2.525 4.01 2.525 4.01 0 3 C0 2.01 0 1.02 0 0 Z " fill="#322948" transform="translate(640,561)"/>
<path d="M0 0 C2.1875 0.3125 2.1875 0.3125 4 1 C4 1.99 4 2.98 4 4 C2.02 4.33 0.04 4.66 -2 5 C-2.33 4.34 -2.66 3.68 -3 3 C-1.75 1.4375 -1.75 1.4375 0 0 Z " fill="#44345B" transform="translate(398,560)"/>
<path d="M0 0 C0.33 0 0.66 0 1 0 C1 2.31 1 4.62 1 7 C0.01 7.33 -0.98 7.66 -2 8 C-2.66 8.66 -3.32 9.32 -4 10 C-4 8.68 -4 7.36 -4 6 C-2.68 5.67 -1.36 5.34 0 5 C0 3.35 0 1.7 0 0 Z " fill="#342949" transform="translate(418,532)"/>
<path d="M0 0 C0.66 0.33 1.32 0.66 2 1 C0.02 2.98 -1.96 4.96 -4 7 C-4.99 6.67 -5.98 6.34 -7 6 C-4.69 4.02 -2.38 2.04 0 0 Z " fill="#E0DEE7" transform="translate(188,509)"/>
<path d="M0 0 C0.66 0.99 1.32 1.98 2 3 C0.515 5.475 0.515 5.475 -1 8 C-0.34 8.33 0.32 8.66 1 9 C0.01 9 -0.98 9 -2 9 C-2.25 3.375 -2.25 3.375 0 0 Z " fill="#EAE8F0" transform="translate(551,508)"/>
<path d="M0 0 C0.66 0 1.32 0 2 0 C1.01 3.3 0.02 6.6 -1 10 C-1.33 10 -1.66 10 -2 10 C-2.25 3.375 -2.25 3.375 0 0 Z " fill="#302A44" transform="translate(730,461)"/>
<path d="M0 0 C0.66 0.33 1.32 0.66 2 1 C2 1.66 2 2.32 2 3 C1.34 3 0.68 3 0 3 C-0.33 3.99 -0.66 4.98 -1 6 C-2.32 5.67 -3.64 5.34 -5 5 C-3.35 3.35 -1.7 1.7 0 0 Z " fill="#F0F1F7" transform="translate(803,511)"/>
<path d="M0 0 C1.32 0.33 2.64 0.66 4 1 C3.01 2.32 2.02 3.64 1 5 C-0.32 4.67 -1.64 4.34 -3 4 C-2.34 4 -1.68 4 -1 4 C-0.67 2.68 -0.34 1.36 0 0 Z " fill="#312944" transform="translate(587,508)"/>
<path d="M0 0 C5.75 0.75 5.75 0.75 8 3 C7.67 3.99 7.34 4.98 7 6 C6.67 5.34 6.34 4.68 6 4 C4.02111039 3.27306096 2.02045442 2.60183749 0 2 C0 1.34 0 0.68 0 0 Z " fill="#2E2642" transform="translate(587,493)"/>
<path d="M0 0 C2.64 0.33 5.28 0.66 8 1 C7.67 1.99 7.34 2.98 7 4 C4.97954558 3.39816251 2.97888961 2.72693904 1 2 C0.67 1.34 0.34 0.68 0 0 Z " fill="#312844" transform="translate(211,487)"/>
<path d="M0 0 C0.66 0.66 1.32 1.32 2 2 C2.66 1.67 3.32 1.34 4 1 C2.75023244 4.65316671 2.32901247 5.78065836 -1 8 C-0.67 5.36 -0.34 2.72 0 0 Z " fill="#37304A" transform="translate(418,574)"/>
<path d="M0 0 C3.96 0 7.92 0 12 0 C12 0.33 12 0.66 12 1 C11.37351562 1.04898438 10.74703125 1.09796875 10.1015625 1.1484375 C9.28429687 1.22320313 8.46703125 1.29796875 7.625 1.375 C6.81289063 1.44460938 6.00078125 1.51421875 5.1640625 1.5859375 C2.79665809 1.82892588 2.79665809 1.82892588 1 4 C0.67 2.68 0.34 1.36 0 0 Z " fill="#D5D1E0" transform="translate(276,544)"/>
<path d="M0 0 C0.66 0.66 1.32 1.32 2 2 C2.99 2 3.98 2 5 2 C4.67 2.99 4.34 3.98 4 5 C2.35 5 0.7 5 -1 5 C-0.67 3.35 -0.34 1.7 0 0 Z " fill="#47355E" transform="translate(412,539)"/>
<path d="M0 0 C0.66 0 1.32 0 2 0 C1.6875 1.875 1.6875 1.875 1 4 C0.01 4.66 -0.98 5.32 -2 6 C-2 2 -2 2 0 0 Z " fill="#322946" transform="translate(394,519)"/>
<path d="M0 0 C2.3773161 2.3773161 2.67028521 3.70285207 3 7 C2.34 7.66 1.68 8.32 1 9 C0.01 6.69 -0.98 4.38 -2 2 C-1.34 2 -0.68 2 0 2 C0 1.34 0 0.68 0 0 Z " fill="#40365A" transform="translate(683,522)"/>
<path d="M0 0 C3.375 -0.125 3.375 -0.125 7 0 C7.66 0.66 8.32 1.32 9 2 C6.75 2.6875 6.75 2.6875 4 3 C1.6875 1.5625 1.6875 1.5625 0 0 Z " fill="#322D47" transform="translate(404,515)"/>
<path d="M0 0 C0 0.66 0 1.32 0 2 C-5.75 1.25 -5.75 1.25 -8 -1 C-4.37673261 -2.2077558 -3.35853631 -1.54311128 0 0 Z " fill="#352B48" transform="translate(214,506)"/>
</svg>
